<svg width="123" height="123" viewBox="0 0 123 123" fill="none" xmlns="http://www.w3.org/2000/svg">
<path fill-rule="evenodd" clip-rule="evenodd" d="M65.9381 2.36538C65.9381 3.67175 64.9446 4.73077 63.7191 4.73077C62.4935 4.73077 61.5 3.67175 61.5 2.36538C61.5 1.05902 62.4935 0 63.7191 0C64.9446 0 65.9381 1.05902 65.9381 2.36538ZM65.9381 11.827C65.9381 13.1334 64.9446 14.1924 63.7191 14.1924C62.4935 14.1924 61.5 13.1334 61.5 11.827C61.5 10.5206 62.4935 9.46163 63.7191 9.46163C64.9446 9.46163 65.9381 10.5206 65.9381 11.827ZM73.2294 14.1924C74.4549 14.1924 75.4484 13.1334 75.4484 11.827C75.4484 10.5206 74.4549 9.46163 73.2294 9.46163C72.0038 9.46163 71.0103 10.5206 71.0103 11.827C71.0103 13.1334 72.0038 14.1924 73.2294 14.1924ZM84.9587 11.827C84.9587 13.1334 83.9652 14.1924 82.7396 14.1924C81.5141 14.1924 80.5206 13.1334 80.5206 11.827C80.5206 10.5206 81.5141 9.46163 82.7396 9.46163C83.9652 9.46163 84.9587 10.5206 84.9587 11.827ZM92.2499 14.1924C93.4755 14.1924 94.469 13.1334 94.469 11.827C94.469 10.5206 93.4755 9.46163 92.2499 9.46163C91.0243 9.46163 90.0308 10.5206 90.0308 11.827C90.0308 13.1334 91.0243 14.1924 92.2499 14.1924ZM103.979 11.827C103.979 13.1334 102.986 14.1924 101.76 14.1924C100.535 14.1924 99.5413 13.1334 99.5413 11.827C99.5413 10.5206 100.535 9.46163 101.76 9.46163C102.986 9.46163 103.979 10.5206 103.979 11.827ZM111.271 14.1924C112.496 14.1924 113.49 13.1334 113.49 11.827C113.49 10.5206 112.496 9.46163 111.271 9.46163C110.045 9.46163 109.052 10.5206 109.052 11.827C109.052 13.1334 110.045 14.1924 111.271 14.1924ZM123 11.827C123 13.1334 122.006 14.1924 120.781 14.1924C119.555 14.1924 118.562 13.1334 118.562 11.827C118.562 10.5206 119.555 9.46163 120.781 9.46163C122.006 9.46163 123 10.5206 123 11.827ZM63.7191 23.654C64.9446 23.654 65.9381 22.595 65.9381 21.2886C65.9381 19.9823 64.9446 18.9233 63.7191 18.9233C62.4935 18.9233 61.5 19.9823 61.5 21.2886C61.5 22.595 62.4935 23.654 63.7191 23.654ZM75.4484 21.2886C75.4484 22.595 74.4549 23.654 73.2294 23.654C72.0038 23.654 71.0103 22.595 71.0103 21.2886C71.0103 19.9823 72.0038 18.9233 73.2294 18.9233C74.4549 18.9233 75.4484 19.9823 75.4484 21.2886ZM82.7396 23.654C83.9652 23.654 84.9587 22.595 84.9587 21.2886C84.9587 19.9823 83.9652 18.9233 82.7396 18.9233C81.5141 18.9233 80.5206 19.9823 80.5206 21.2886C80.5206 22.595 81.5141 23.654 82.7396 23.654ZM94.469 21.2886C94.469 22.595 93.4755 23.654 92.2499 23.654C91.0243 23.654 90.0308 22.595 90.0308 21.2886C90.0308 19.9823 91.0243 18.9233 92.2499 18.9233C93.4755 18.9233 94.469 19.9823 94.469 21.2886ZM101.76 23.654C102.986 23.654 103.979 22.595 103.979 21.2886C103.979 19.9823 102.986 18.9233 101.76 18.9233C100.535 18.9233 99.5413 19.9823 99.5413 21.2886C99.5413 22.595 100.535 23.654 101.76 23.654ZM113.49 21.2886C113.49 22.595 112.496 23.654 111.271 23.654C110.045 23.654 109.052 22.595 109.052 21.2886C109.052 19.9823 110.045 18.9233 111.271 18.9233C112.496 18.9233 113.49 19.9823 113.49 21.2886ZM120.781 23.654C122.006 23.654 123 22.595 123 21.2886C123 19.9823 122.006 18.9233 120.781 18.9233C119.555 18.9233 118.562 19.9823 118.562 21.2886C118.562 22.595 119.555 23.654 120.781 23.654ZM65.9381 30.7503C65.9381 32.0566 64.9446 33.1157 63.7191 33.1157C62.4935 33.1157 61.5 32.0566 61.5 30.7503C61.5 29.4439 62.4935 28.3849 63.7191 28.3849C64.9446 28.3849 65.9381 29.4439 65.9381 30.7503ZM73.2294 33.1157C74.4549 33.1157 75.4484 32.0566 75.4484 30.7503C75.4484 29.4439 74.4549 28.3849 73.2294 28.3849C72.0038 28.3849 71.0103 29.4439 71.0103 30.7503C71.0103 32.0566 72.0038 33.1157 73.2294 33.1157ZM84.9587 30.7503C84.9587 32.0566 83.9652 33.1157 82.7396 33.1157C81.5141 33.1157 80.5206 32.0566 80.5206 30.7503C80.5206 29.4439 81.5141 28.3849 82.7396 28.3849C83.9652 28.3849 84.9587 29.4439 84.9587 30.7503ZM92.2499 33.1157C93.4755 33.1157 94.469 32.0566 94.469 30.7503C94.469 29.4439 93.4755 28.3849 92.2499 28.3849C91.0243 28.3849 90.0308 29.4439 90.0308 30.7503C90.0308 32.0566 91.0243 33.1157 92.2499 33.1157ZM103.979 30.7503C103.979 32.0566 102.986 33.1157 101.76 33.1157C100.535 33.1157 99.5413 32.0566 99.5413 30.7503C99.5413 29.4439 100.535 28.3849 101.76 28.3849C102.986 28.3849 103.979 29.4439 103.979 30.7503ZM111.271 33.1157C112.496 33.1157 113.49 32.0566 113.49 30.7503C113.49 29.4439 112.496 28.3849 111.271 28.3849C110.045 28.3849 109.052 29.4439 109.052 30.7503C109.052 32.0566 110.045 33.1157 111.271 33.1157ZM123 30.7503C123 32.0566 122.006 33.1157 120.781 33.1157C119.555 33.1157 118.562 32.0566 118.562 30.7503C118.562 29.4439 119.555 28.3849 120.781 28.3849C122.006 28.3849 123 29.4439 123 30.7503ZM63.7191 42.5773C64.9446 42.5773 65.9381 41.5183 65.9381 40.2119C65.9381 38.9055 64.9446 37.8465 63.7191 37.8465C62.4935 37.8465 61.5 38.9055 61.5 40.2119C61.5 41.5183 62.4935 42.5773 63.7191 42.5773ZM75.4484 40.2119C75.4484 41.5183 74.4549 42.5773 73.2294 42.5773C72.0038 42.5773 71.0103 41.5183 71.0103 40.2119C71.0103 38.9055 72.0038 37.8465 73.2294 37.8465C74.4549 37.8465 75.4484 38.9055 75.4484 40.2119ZM82.7396 42.5773C83.9652 42.5773 84.9587 41.5183 84.9587 40.2119C84.9587 38.9055 83.9652 37.8465 82.7396 37.8465C81.5141 37.8465 80.5206 38.9055 80.5206 40.2119C80.5206 41.5183 81.5141 42.5773 82.7396 42.5773ZM94.469 40.2119C94.469 41.5183 93.4755 42.5773 92.2499 42.5773C91.0243 42.5773 90.0308 41.5183 90.0308 40.2119C90.0308 38.9055 91.0243 37.8465 92.2499 37.8465C93.4755 37.8465 94.469 38.9055 94.469 40.2119ZM101.76 42.5773C102.986 42.5773 103.979 41.5183 103.979 40.2119C103.979 38.9055 102.986 37.8465 101.76 37.8465C100.535 37.8465 99.5413 38.9055 99.5413 40.2119C99.5413 41.5183 100.535 42.5773 101.76 42.5773ZM113.49 40.2119C113.49 41.5183 112.496 42.5773 111.271 42.5773C110.045 42.5773 109.052 41.5183 109.052 40.2119C109.052 38.9055 110.045 37.8465 111.271 37.8465C112.496 37.8465 113.49 38.9055 113.49 40.2119ZM120.781 42.5773C122.006 42.5773 123 41.5183 123 40.2119C123 38.9055 122.006 37.8465 120.781 37.8465C119.555 37.8465 118.562 38.9055 118.562 40.2119C118.562 41.5183 119.555 42.5773 120.781 42.5773ZM65.9381 49.6735C65.9381 50.9799 64.9446 52.0389 63.7191 52.0389C62.4935 52.0389 61.5 50.9799 61.5 49.6735C61.5 48.3672 62.4935 47.3082 63.7191 47.3082C64.9446 47.3082 65.9381 48.3672 65.9381 49.6735ZM73.2294 52.0389C74.4549 52.0389 75.4484 50.9799 75.4484 49.6735C75.4484 48.3672 74.4549 47.3082 73.2294 47.3082C72.0038 47.3082 71.0103 48.3672 71.0103 49.6735C71.0103 50.9799 72.0038 52.0389 73.2294 52.0389ZM84.9587 49.6735C84.9587 50.9799 83.9652 52.0389 82.7396 52.0389C81.5141 52.0389 80.5206 50.9799 80.5206 49.6735C80.5206 48.3672 81.5141 47.3082 82.7396 47.3082C83.9652 47.3082 84.9587 48.3672 84.9587 49.6735ZM92.2499 52.0389C93.4755 52.0389 94.469 50.9799 94.469 49.6735C94.469 48.3672 93.4755 47.3082 92.2499 47.3082C91.0243 47.3082 90.0308 48.3672 90.0308 49.6735C90.0308 50.9799 91.0243 52.0389 92.2499 52.0389ZM103.979 49.6735C103.979 50.9799 102.986 52.0389 101.76 52.0389C100.535 52.0389 99.5413 50.9799 99.5413 49.6735C99.5413 48.3672 100.535 47.3082 101.76 47.3082C102.986 47.3082 103.979 48.3672 103.979 49.6735ZM111.271 52.0389C112.496 52.0389 113.49 50.9799 113.49 49.6735C113.49 48.3672 112.496 47.3082 111.271 47.3082C110.045 47.3082 109.052 48.3672 109.052 49.6735C109.052 50.9799 110.045 52.0389 111.271 52.0389ZM123 49.6735C123 50.9799 122.006 52.0389 120.781 52.0389C119.555 52.0389 118.562 50.9799 118.562 49.6735C118.562 48.3672 119.555 47.3082 120.781 47.3082C122.006 47.3082 123 48.3672 123 49.6735ZM63.7191 61.5006C64.9446 61.5006 65.9381 60.4415 65.9381 59.1352C65.9381 57.8288 64.9446 56.7698 63.7191 56.7698C62.4935 56.7698 61.5 57.8288 61.5 59.1352C61.5 60.4415 62.4935 61.5006 63.7191 61.5006ZM75.4484 59.1352C75.4484 60.4415 74.4549 61.5006 73.2294 61.5006C72.0038 61.5006 71.0103 60.4415 71.0103 59.1352C71.0103 57.8288 72.0038 56.7698 73.2294 56.7698C74.4549 56.7698 75.4484 57.8288 75.4484 59.1352ZM82.7396 61.5006C83.9652 61.5006 84.9587 60.4415 84.9587 59.1352C84.9587 57.8288 83.9652 56.7698 82.7396 56.7698C81.5141 56.7698 80.5206 57.8288 80.5206 59.1352C80.5206 60.4415 81.5141 61.5006 82.7396 61.5006ZM94.469 59.1352C94.469 60.4415 93.4755 61.5006 92.2499 61.5006C91.0243 61.5006 90.0308 60.4415 90.0308 59.1352C90.0308 57.8288 91.0243 56.7698 92.2499 56.7698C93.4755 56.7698 94.469 57.8288 94.469 59.1352ZM101.76 61.5006C102.986 61.5006 103.979 60.4415 103.979 59.1352C103.979 57.8288 102.986 56.7698 101.76 56.7698C100.535 56.7698 99.5413 57.8288 99.5413 59.1352C99.5413 60.4415 100.535 61.5006 101.76 61.5006ZM113.49 59.1352C113.49 60.4415 112.496 61.5006 111.271 61.5006C110.045 61.5006 109.052 60.4415 109.052 59.1352C109.052 57.8288 110.045 56.7698 111.271 56.7698C112.496 56.7698 113.49 57.8288 113.49 59.1352ZM120.781 61.5006C122.006 61.5006 123 60.4415 123 59.1352C123 57.8288 122.006 56.7698 120.781 56.7698C119.555 56.7698 118.562 57.8288 118.562 59.1352C118.562 60.4415 119.555 61.5006 120.781 61.5006ZM75.4484 2.36538C75.4484 3.67175 74.4549 4.73077 73.2294 4.73077C72.0038 4.73077 71.0103 3.67175 71.0103 2.36538C71.0103 1.05902 72.0038 0 73.2294 0C74.4549 0 75.4484 1.05902 75.4484 2.36538ZM82.7396 4.73077C83.9652 4.73077 84.9587 3.67175 84.9587 2.36538C84.9587 1.05902 83.9652 0 82.7396 0C81.5141 0 80.5206 1.05902 80.5206 2.36538C80.5206 3.67175 81.5141 4.73077 82.7396 4.73077ZM94.4691 2.36538C94.4691 3.67175 93.4756 4.73077 92.2501 4.73077C91.0245 4.73077 90.031 3.67175 90.031 2.36538C90.031 1.05902 91.0245 0 92.2501 0C93.4756 0 94.4691 1.05902 94.4691 2.36538ZM101.76 4.73077C102.986 4.73077 103.979 3.67175 103.979 2.36538C103.979 1.05902 102.986 0 101.76 0C100.535 0 99.5413 1.05902 99.5413 2.36538C99.5413 3.67175 100.535 4.73077 101.76 4.73077ZM113.49 2.36538C113.49 3.67175 112.496 4.73077 111.271 4.73077C110.045 4.73077 109.052 3.67175 109.052 2.36538C109.052 1.05902 110.045 0 111.271 0C112.496 0 113.49 1.05902 113.49 2.36538ZM120.781 4.73077C122.006 4.73077 123 3.67175 123 2.36538C123 1.05902 122.006 0 120.781 0C119.555 0 118.562 1.05902 118.562 2.36538C118.562 3.67175 119.555 4.73077 120.781 4.73077Z" fill="#5100FF"/>
<path fill-rule="evenodd" clip-rule="evenodd" d="M4.43814 63.8654C4.43814 65.1718 3.44463 66.2308 2.21907 66.2308C0.993513 66.2308 0 65.1718 0 63.8654C0 62.559 0.993513 61.5 2.21907 61.5C3.44463 61.5 4.43814 62.559 4.43814 63.8654ZM4.43814 73.327C4.43814 74.6334 3.44463 75.6924 2.21907 75.6924C0.993513 75.6924 0 74.6334 0 73.327C0 72.0206 0.993513 70.9616 2.21907 70.9616C3.44463 70.9616 4.43814 72.0206 4.43814 73.327ZM11.7294 75.6924C12.9549 75.6924 13.9484 74.6334 13.9484 73.327C13.9484 72.0206 12.9549 70.9616 11.7294 70.9616C10.5038 70.9616 9.51028 72.0206 9.51028 73.327C9.51028 74.6334 10.5038 75.6924 11.7294 75.6924ZM23.4587 73.327C23.4587 74.6334 22.4652 75.6924 21.2396 75.6924C20.0141 75.6924 19.0206 74.6334 19.0206 73.327C19.0206 72.0206 20.0141 70.9616 21.2396 70.9616C22.4652 70.9616 23.4587 72.0206 23.4587 73.327ZM30.7499 75.6924C31.9755 75.6924 32.969 74.6334 32.969 73.327C32.969 72.0206 31.9755 70.9616 30.7499 70.9616C29.5243 70.9616 28.5308 72.0206 28.5308 73.327C28.5308 74.6334 29.5243 75.6924 30.7499 75.6924ZM42.4794 73.327C42.4794 74.6334 41.4859 75.6924 40.2603 75.6924C39.0348 75.6924 38.0413 74.6334 38.0413 73.327C38.0413 72.0206 39.0348 70.9616 40.2603 70.9616C41.4859 70.9616 42.4794 72.0206 42.4794 73.327ZM49.7706 75.6924C50.9962 75.6924 51.9897 74.6334 51.9897 73.327C51.9897 72.0206 50.9962 70.9616 49.7706 70.9616C48.5451 70.9616 47.5515 72.0206 47.5515 73.327C47.5515 74.6334 48.5451 75.6924 49.7706 75.6924ZM61.5 73.327C61.5 74.6334 60.5065 75.6924 59.2809 75.6924C58.0553 75.6924 57.0618 74.6334 57.0618 73.327C57.0618 72.0206 58.0553 70.9616 59.2809 70.9616C60.5065 70.9616 61.5 72.0206 61.5 73.327ZM2.21907 85.154C3.44463 85.154 4.43814 84.095 4.43814 82.7886C4.43814 81.4823 3.44463 80.4233 2.21907 80.4233C0.993513 80.4233 0 81.4823 0 82.7886C0 84.095 0.993513 85.154 2.21907 85.154ZM13.9484 82.7886C13.9484 84.095 12.9549 85.154 11.7294 85.154C10.5038 85.154 9.51028 84.095 9.51028 82.7886C9.51028 81.4823 10.5038 80.4233 11.7294 80.4233C12.9549 80.4233 13.9484 81.4823 13.9484 82.7886ZM21.2396 85.154C22.4652 85.154 23.4587 84.095 23.4587 82.7886C23.4587 81.4823 22.4652 80.4233 21.2396 80.4233C20.0141 80.4233 19.0206 81.4823 19.0206 82.7886C19.0206 84.095 20.0141 85.154 21.2396 85.154ZM32.969 82.7886C32.969 84.095 31.9755 85.154 30.7499 85.154C29.5243 85.154 28.5308 84.095 28.5308 82.7886C28.5308 81.4823 29.5243 80.4233 30.7499 80.4233C31.9755 80.4233 32.969 81.4823 32.969 82.7886ZM40.2603 85.154C41.4859 85.154 42.4794 84.095 42.4794 82.7886C42.4794 81.4823 41.4859 80.4233 40.2603 80.4233C39.0348 80.4233 38.0413 81.4823 38.0413 82.7886C38.0413 84.095 39.0348 85.154 40.2603 85.154ZM51.9897 82.7886C51.9897 84.095 50.9962 85.154 49.7706 85.154C48.5451 85.154 47.5515 84.095 47.5515 82.7886C47.5515 81.4823 48.5451 80.4233 49.7706 80.4233C50.9962 80.4233 51.9897 81.4823 51.9897 82.7886ZM59.2809 85.154C60.5065 85.154 61.5 84.095 61.5 82.7886C61.5 81.4823 60.5065 80.4233 59.2809 80.4233C58.0553 80.4233 57.0618 81.4823 57.0618 82.7886C57.0618 84.095 58.0553 85.154 59.2809 85.154ZM4.43814 92.2503C4.43814 93.5566 3.44463 94.6157 2.21907 94.6157C0.993513 94.6157 0 93.5566 0 92.2503C0 90.9439 0.993513 89.8849 2.21907 89.8849C3.44463 89.8849 4.43814 90.9439 4.43814 92.2503ZM11.7294 94.6157C12.9549 94.6157 13.9484 93.5566 13.9484 92.2503C13.9484 90.9439 12.9549 89.8849 11.7294 89.8849C10.5038 89.8849 9.51028 90.9439 9.51028 92.2503C9.51028 93.5566 10.5038 94.6157 11.7294 94.6157ZM23.4587 92.2503C23.4587 93.5566 22.4652 94.6157 21.2396 94.6157C20.0141 94.6157 19.0206 93.5566 19.0206 92.2503C19.0206 90.9439 20.0141 89.8849 21.2396 89.8849C22.4652 89.8849 23.4587 90.9439 23.4587 92.2503ZM30.7499 94.6157C31.9755 94.6157 32.969 93.5566 32.969 92.2503C32.969 90.9439 31.9755 89.8849 30.7499 89.8849C29.5243 89.8849 28.5308 90.9439 28.5308 92.2503C28.5308 93.5566 29.5243 94.6157 30.7499 94.6157ZM42.4794 92.2503C42.4794 93.5566 41.4859 94.6157 40.2603 94.6157C39.0348 94.6157 38.0413 93.5566 38.0413 92.2503C38.0413 90.9439 39.0348 89.8849 40.2603 89.8849C41.4859 89.8849 42.4794 90.9439 42.4794 92.2503ZM49.7706 94.6157C50.9962 94.6157 51.9897 93.5566 51.9897 92.2503C51.9897 90.9439 50.9962 89.8849 49.7706 89.8849C48.5451 89.8849 47.5515 90.9439 47.5515 92.2503C47.5515 93.5566 48.5451 94.6157 49.7706 94.6157ZM61.5 92.2503C61.5 93.5566 60.5065 94.6157 59.2809 94.6157C58.0553 94.6157 57.0618 93.5566 57.0618 92.2503C57.0618 90.9439 58.0553 89.8849 59.2809 89.8849C60.5065 89.8849 61.5 90.9439 61.5 92.2503ZM2.21907 104.077C3.44463 104.077 4.43814 103.018 4.43814 101.712C4.43814 100.406 3.44463 99.3465 2.21907 99.3465C0.993513 99.3465 0 100.406 0 101.712C0 103.018 0.993513 104.077 2.21907 104.077ZM13.9484 101.712C13.9484 103.018 12.9549 104.077 11.7294 104.077C10.5038 104.077 9.51028 103.018 9.51028 101.712C9.51028 100.406 10.5038 99.3465 11.7294 99.3465C12.9549 99.3465 13.9484 100.406 13.9484 101.712ZM21.2396 104.077C22.4652 104.077 23.4587 103.018 23.4587 101.712C23.4587 100.406 22.4652 99.3465 21.2396 99.3465C20.0141 99.3465 19.0206 100.406 19.0206 101.712C19.0206 103.018 20.0141 104.077 21.2396 104.077ZM32.969 101.712C32.969 103.018 31.9755 104.077 30.7499 104.077C29.5243 104.077 28.5308 103.018 28.5308 101.712C28.5308 100.406 29.5243 99.3465 30.7499 99.3465C31.9755 99.3465 32.969 100.406 32.969 101.712ZM40.2603 104.077C41.4859 104.077 42.4794 103.018 42.4794 101.712C42.4794 100.406 41.4859 99.3465 40.2603 99.3465C39.0348 99.3465 38.0413 100.406 38.0413 101.712C38.0413 103.018 39.0348 104.077 40.2603 104.077ZM51.9897 101.712C51.9897 103.018 50.9962 104.077 49.7706 104.077C48.5451 104.077 47.5515 103.018 47.5515 101.712C47.5515 100.406 48.5451 99.3465 49.7706 99.3465C50.9962 99.3465 51.9897 100.406 51.9897 101.712ZM59.2809 104.077C60.5065 104.077 61.5 103.018 61.5 101.712C61.5 100.406 60.5065 99.3465 59.2809 99.3465C58.0553 99.3465 57.0618 100.406 57.0618 101.712C57.0618 103.018 58.0553 104.077 59.2809 104.077ZM4.43814 111.174C4.43814 112.48 3.44463 113.539 2.21907 113.539C0.993513 113.539 0 112.48 0 111.174C0 109.867 0.993513 108.808 2.21907 108.808C3.44463 108.808 4.43814 109.867 4.43814 111.174ZM11.7294 113.539C12.9549 113.539 13.9484 112.48 13.9484 111.174C13.9484 109.867 12.9549 108.808 11.7294 108.808C10.5038 108.808 9.51028 109.867 9.51028 111.174C9.51028 112.48 10.5038 113.539 11.7294 113.539ZM23.4587 111.174C23.4587 112.48 22.4652 113.539 21.2396 113.539C20.0141 113.539 19.0206 112.48 19.0206 111.174C19.0206 109.867 20.0141 108.808 21.2396 108.808C22.4652 108.808 23.4587 109.867 23.4587 111.174ZM30.7499 113.539C31.9755 113.539 32.969 112.48 32.969 111.174C32.969 109.867 31.9755 108.808 30.7499 108.808C29.5243 108.808 28.5308 109.867 28.5308 111.174C28.5308 112.48 29.5243 113.539 30.7499 113.539ZM42.4794 111.174C42.4794 112.48 41.4859 113.539 40.2603 113.539C39.0348 113.539 38.0413 112.48 38.0413 111.174C38.0413 109.867 39.0348 108.808 40.2603 108.808C41.4859 108.808 42.4794 109.867 42.4794 111.174ZM49.7706 113.539C50.9962 113.539 51.9897 112.48 51.9897 111.174C51.9897 109.867 50.9962 108.808 49.7706 108.808C48.5451 108.808 47.5515 109.867 47.5515 111.174C47.5515 112.48 48.5451 113.539 49.7706 113.539ZM61.5 111.174C61.5 112.48 60.5065 113.539 59.2809 113.539C58.0553 113.539 57.0618 112.48 57.0618 111.174C57.0618 109.867 58.0553 108.808 59.2809 108.808C60.5065 108.808 61.5 109.867 61.5 111.174ZM2.21907 123.001C3.44463 123.001 4.43814 121.942 4.43814 120.635C4.43814 119.329 3.44463 118.27 2.21907 118.27C0.993513 118.27 0 119.329 0 120.635C0 121.942 0.993513 123.001 2.21907 123.001ZM13.9484 120.635C13.9484 121.942 12.9549 123.001 11.7294 123.001C10.5038 123.001 9.51028 121.942 9.51028 120.635C9.51028 119.329 10.5038 118.27 11.7294 118.27C12.9549 118.27 13.9484 119.329 13.9484 120.635ZM21.2396 123.001C22.4652 123.001 23.4587 121.942 23.4587 120.635C23.4587 119.329 22.4652 118.27 21.2396 118.27C20.0141 118.27 19.0206 119.329 19.0206 120.635C19.0206 121.942 20.0141 123.001 21.2396 123.001ZM32.969 120.635C32.969 121.942 31.9755 123.001 30.7499 123.001C29.5243 123.001 28.5308 121.942 28.5308 120.635C28.5308 119.329 29.5243 118.27 30.7499 118.27C31.9755 118.27 32.969 119.329 32.969 120.635ZM40.2603 123.001C41.4859 123.001 42.4794 121.942 42.4794 120.635C42.4794 119.329 41.4859 118.27 40.2603 118.27C39.0348 118.27 38.0413 119.329 38.0413 120.635C38.0413 121.942 39.0348 123.001 40.2603 123.001ZM51.9897 120.635C51.9897 121.942 50.9962 123.001 49.7706 123.001C48.5451 123.001 47.5515 121.942 47.5515 120.635C47.5515 119.329 48.5451 118.27 49.7706 118.27C50.9962 118.27 51.9897 119.329 51.9897 120.635ZM59.2809 123.001C60.5065 123.001 61.5 121.942 61.5 120.635C61.5 119.329 60.5065 118.27 59.2809 118.27C58.0553 118.27 57.0618 119.329 57.0618 120.635C57.0618 121.942 58.0553 123.001 59.2809 123.001ZM13.9484 63.8654C13.9484 65.1718 12.9549 66.2308 11.7294 66.2308C10.5038 66.2308 9.51028 65.1718 9.51028 63.8654C9.51028 62.559 10.5038 61.5 11.7294 61.5C12.9549 61.5 13.9484 62.559 13.9484 63.8654ZM21.2396 66.2308C22.4652 66.2308 23.4587 65.1718 23.4587 63.8654C23.4587 62.559 22.4652 61.5 21.2396 61.5C20.0141 61.5 19.0206 62.559 19.0206 63.8654C19.0206 65.1718 20.0141 66.2308 21.2396 66.2308ZM32.9691 63.8654C32.9691 65.1718 31.9756 66.2308 30.7501 66.2308C29.5245 66.2308 28.531 65.1718 28.531 63.8654C28.531 62.559 29.5245 61.5 30.7501 61.5C31.9756 61.5 32.9691 62.559 32.9691 63.8654ZM40.2603 66.2308C41.4859 66.2308 42.4794 65.1718 42.4794 63.8654C42.4794 62.559 41.4859 61.5 40.2603 61.5C39.0348 61.5 38.0413 62.559 38.0413 63.8654C38.0413 65.1718 39.0348 66.2308 40.2603 66.2308ZM51.9897 63.8654C51.9897 65.1718 50.9962 66.2308 49.7706 66.2308C48.5451 66.2308 47.5515 65.1718 47.5515 63.8654C47.5515 62.559 48.5451 61.5 49.7706 61.5C50.9962 61.5 51.9897 62.559 51.9897 63.8654ZM59.2809 66.2308C60.5065 66.2308 61.5 65.1718 61.5 63.8654C61.5 62.559 60.5065 61.5 59.2809 61.5C58.0553 61.5 57.0618 62.559 57.0618 63.8654C57.0618 65.1718 58.0553 66.2308 59.2809 66.2308Z" fill="#5100FF"/>
</svg>
