<svg width="28" height="29" viewBox="0 0 28 29" fill="none" xmlns="http://www.w3.org/2000/svg">
<path d="M17.5903 3.5C19.7733 3.5 20.823 3.70271 21.9137 4.28602C22.9028 4.81499 23.685 5.5972 24.214 6.58629C24.7973 7.67697 25 8.72671 25 10.9097V18.0903C25 20.2733 24.7973 21.323 24.214 22.4137C23.685 23.4028 22.9028 24.185 21.9137 24.714C20.823 25.2973 19.7733 25.5 17.5903 25.5H10.4097C8.22671 25.5 7.17697 25.2973 6.08629 24.714C5.0972 24.185 4.31499 23.4028 3.78602 22.4137C3.20271 21.323 3 20.2733 3 18.0903V10.9097C3 8.72671 3.20271 7.67697 3.78602 6.58629C4.31499 5.5972 5.0972 4.81499 6.08629 4.28602C7.17697 3.70271 8.22671 3.5 10.4097 3.5H17.5903ZM4.99899 11.5L5 18.0903C5 19.9714 5.14248 20.7092 5.54964 21.4705C5.89221 22.1111 6.38894 22.6078 7.02948 22.9504C7.79082 23.3575 8.52864 23.5 10.4097 23.5H17.5903C19.4714 23.5 20.2092 23.3575 20.9705 22.9504C21.6111 22.6078 22.1078 22.1111 22.4504 21.4705C22.8575 20.7092 23 19.9714 23 18.0903L22.999 11.5H4.99899ZM17.5903 5.5H10.4097C8.52864 5.5 7.79082 5.64248 7.02948 6.04964C6.38894 6.39221 5.89221 6.88894 5.54964 7.52948C5.26405 8.0635 5.10868 8.58594 5.04136 9.49945H22.9586C22.8913 8.58594 22.7359 8.0635 22.4504 7.52948C22.1078 6.88894 21.6111 6.39221 20.9705 6.04964C20.2092 5.64248 19.4714 5.5 17.5903 5.5Z" fill="#005FF9"/>
</svg>
