<svg width="18" height="18" viewBox="0 0 18 18" fill="none" xmlns="http://www.w3.org/2000/svg">
<path fill-rule="evenodd" clip-rule="evenodd" d="M15.9894 6.89399C16.4394 7.10099 17.5752 7.77958 17.7192 7.87138C17.8952 7.9806 18.0016 8.17364 18 8.38078V9.61918C18.0012 9.8295 17.8919 10.025 17.712 10.134C17.5212 10.2546 16.4142 10.9152 15.9822 11.1114L15.4242 12.4614C15.6042 12.9366 15.9264 14.211 15.9642 14.3766C16.0103 14.5781 15.949 14.7891 15.8022 14.9346L14.9274 15.8094C14.7815 15.9556 14.5708 16.0168 14.3694 15.9714L14.3467 15.9656C14.0762 15.8963 12.887 15.5919 12.4542 15.4314L11.1042 15.9894C10.8972 16.4394 10.2186 17.5752 10.1268 17.7192C10.0163 17.8939 9.82408 17.9999 9.61738 18H8.38078C8.17046 18.0012 7.97495 17.8919 7.86598 17.712C7.74538 17.5212 7.08479 16.4142 6.88859 15.9822L5.53859 15.4242C5.06339 15.6042 3.78899 15.9264 3.62339 15.9642C3.42189 16.0103 3.21086 15.949 3.06539 15.8022L2.1906 14.9274C2.04433 14.7815 1.98316 14.5708 2.0286 14.3694L2.03442 14.3466C2.10367 14.0761 2.40804 12.887 2.56859 12.4542L2.0106 11.1042C1.5606 10.8972 0.424799 10.2186 0.280799 10.1268C0.106077 10.0163 0.000103551 9.82408 0 9.61738V8.38078C0.000227997 8.17274 0.108635 7.97979 0.286199 7.87138C0.476999 7.75078 1.584 7.09019 2.016 6.89399L2.57399 5.54399C2.394 5.06879 2.0718 3.79439 2.034 3.62879C1.98785 3.42729 2.04912 3.21626 2.196 3.07079L3.07079 2.1906C3.21662 2.04433 3.42731 1.98316 3.62879 2.0286C3.63543 2.0303 3.64302 2.03224 3.65153 2.03442C3.92207 2.10367 5.11119 2.40804 5.54399 2.56859L6.89399 2.0106C7.10099 1.5606 7.77958 0.424799 7.87138 0.280799C7.98183 0.106077 8.17408 0.000103551 8.38078 0H9.61918C9.82722 0.000227997 10.0202 0.108635 10.1286 0.286199C10.2492 0.476999 10.9098 1.584 11.106 2.016L12.456 2.57399C12.9312 2.394 14.2056 2.0718 14.3712 2.034C14.5727 1.98785 14.7837 2.04912 14.9292 2.196L15.8094 3.07079C15.9556 3.21662 16.0168 3.42731 15.9714 3.62879L15.9656 3.65149C15.8963 3.92197 15.5919 5.11117 15.4314 5.54399L15.9894 6.89399ZM5.08139 8.99278C5.0794 11.1589 6.83382 12.9166 8.99998 12.9186C11.1649 12.9176 12.9208 11.1649 12.9258 8.99998C12.9278 6.83382 11.1733 5.07618 9.00718 5.07419C6.84102 5.07221 5.08338 6.82662 5.08139 8.99278Z" fill="white" fill-opacity="0.96"/>
</svg>
