<svg width="24" height="24" viewBox="0 0 24 24" fill="none" xmlns="http://www.w3.org/2000/svg">
<path fill-rule="evenodd" clip-rule="evenodd" d="M1.75 7.7002C1.75 5.21491 3.76472 3.2002 6.25 3.2002H17.75C20.2353 3.2002 22.25 5.21491 22.25 7.7002V16.7002C22.25 19.1855 20.2353 21.2002 17.75 21.2002H6.25C3.76472 21.2002 1.75 19.1855 1.75 16.7002V16.2002C1.75 15.6479 2.19772 15.2002 2.75 15.2002C3.30228 15.2002 3.75 15.6479 3.75 16.2002V16.7002C3.75 18.0809 4.86929 19.2002 6.25 19.2002H17.75C19.1307 19.2002 20.25 18.0809 20.25 16.7002V7.7002C20.25 6.31948 19.1307 5.2002 17.75 5.2002H6.25C4.86929 5.2002 3.75 6.31948 3.75 7.7002V8.2002C3.75 8.75248 3.30228 9.2002 2.75 9.2002C2.19772 9.2002 1.75 8.75248 1.75 8.2002V7.7002ZM14.2713 12.4741L10.1899 15.3018C9.96885 15.4549 9.66675 15.2967 9.66675 15.0278V13.2002H2.75C2.19772 13.2002 1.75 12.7525 1.75 12.2002C1.75 11.6479 2.19772 11.2002 2.75 11.2002H9.66675V9.37248C9.66675 9.10354 9.96885 8.94533 10.1899 9.09849L14.2713 11.9261C14.4626 12.0587 14.4626 12.3416 14.2713 12.4741Z" fill="white" fill-opacity="0.96"/>
</svg>
