<svg width="28" height="29" viewBox="0 0 28 29" fill="none" xmlns="http://www.w3.org/2000/svg">
<path d="M18.657 5.17361C16.9638 5.24807 15.4453 5.91719 14.1294 7.1494L13.9929 7.28179L13.8509 7.14414C12.4396 5.83869 10.8203 5.16663 9.02336 5.16663C5.33993 5.16663 2.33325 8.1536 2.33325 11.8367C2.33325 15.4387 3.64847 17.1469 9.54608 21.8068L12.6821 24.2541C13.4569 24.858 14.5429 24.858 15.3177 24.2541L18.0759 22.1045L19.1646 21.2415C24.4587 17.0013 25.6666 15.2886 25.6666 11.8367C25.6666 8.1536 22.6599 5.16663 18.9765 5.16663L18.657 5.17361ZM18.9765 7.26663C21.5032 7.26663 23.5666 9.3165 23.5666 11.8367L23.5608 12.1793C23.4723 14.6953 22.322 16.0773 17.1336 20.1735L14.0268 22.5978C14.011 22.6101 13.9888 22.6101 13.973 22.5978L11.2148 20.4481L10.1954 19.641C5.36282 15.7806 4.43325 14.4612 4.43325 11.8367C4.43325 9.3165 6.49665 7.26663 9.02336 7.26663C10.5784 7.26663 11.9475 7.98714 13.1877 9.50108C13.6105 10.0173 14.4013 10.0133 14.8189 9.49277C16.0287 7.98488 17.3934 7.26663 18.9765 7.26663Z" fill="#005FF9"/>
</svg>
