<svg width="28" height="29" viewBox="0 0 28 29" fill="none" xmlns="http://www.w3.org/2000/svg">
<path fill-rule="evenodd" clip-rule="evenodd" d="M2.53663 13.9989C2.53663 8.33902 7.82565 4 14.0182 4C20.2108 4 25.4998 8.33902 25.4998 13.9989C25.4998 19.6589 20.2108 23.9979 14.0182 23.9979C12.6451 23.9979 11.3252 23.788 10.1002 23.4013C8.65538 24.7498 6.55607 25.398 3.98805 25.4989C2.94195 25.54 2.18689 24.4519 2.62492 23.478C3.24632 22.0866 4.04922 20.4915 4.14443 19.1002C3.12759 17.6195 2.53663 15.8721 2.53663 13.9989ZM14.0182 6C8.63315 6 4.53663 9.71891 4.53663 13.9989C4.53663 15.5359 5.05127 16.9778 5.95849 18.1996C6.08651 18.372 6.15563 18.581 6.15563 18.7957C6.15563 20.4295 5.50437 21.971 4.84121 23.4339C6.89728 23.2155 8.24611 22.5571 9.05946 21.6C9.33263 21.2786 9.77815 21.1631 10.1731 21.3114C11.3453 21.7516 12.6456 21.9979 14.0182 21.9979C19.4033 21.9979 23.4998 18.279 23.4998 13.9989C23.4998 9.71891 19.4033 6 14.0182 6Z" fill="#99A2AD"/>
</svg>
