<svg width="29" height="29" viewBox="0 0 29 29" fill="none" xmlns="http://www.w3.org/2000/svg">
<path d="M14.5046 4C19.0359 4 22.5 7.79407 22.5 12.5815L22.4954 14.4081C22.4958 14.7154 22.6946 15.0707 23.2335 15.705C23.3012 15.7847 23.3649 15.8585 23.5043 16.0195C24.5744 17.2577 25 17.9745 25 19.0882C25 19.5893 24.943 19.9785 24.7056 20.4456C24.1996 21.4409 23.1182 22 21.5 22L18.8989 22.0007C18.231 24.2645 16.7123 25.5 14.5 25.5C12.2877 25.5 10.769 24.2645 10.1011 22.0007L7.5 22C5.83483 22 4.74203 21.4258 4.25797 20.3962C4.04802 19.9497 4 19.5875 4 19.0882C4 17.975 4.42475 17.2582 5.49283 16.0202C5.63191 15.8592 5.69552 15.7854 5.76308 15.7057C6.30171 15.0706 6.5 14.7151 6.5 14.4071V12.5789C6.5 7.79571 9.97202 4 14.5046 4ZM16.7794 22.0008H12.2206C12.6714 23.0432 13.3987 23.5 14.5 23.5C15.6013 23.5 16.3286 23.0432 16.7794 22.0008ZM14.5046 6C11.1184 6 8.5 8.86245 8.5 12.5789V14.4071C8.5 15.3348 8.1156 16.0239 7.28841 16.9993C7.21509 17.0857 7.14587 17.1661 7.00717 17.3266C6.24712 18.2076 6 18.6246 6 19.0882C6 19.3144 6.01597 19.4348 6.06791 19.5453C6.19184 19.8089 6.55558 20 7.5 20H21.5C22.4142 20 22.7863 19.8076 22.9228 19.5392C22.9818 19.423 23 19.2989 23 19.0882C23 18.6251 22.7524 18.2081 21.9911 17.3273C21.8522 17.1668 21.7828 17.0864 21.7094 17C20.8806 16.0245 20.4954 15.3353 20.4954 14.4071L20.5 12.5789C20.5 8.86008 17.8886 6 14.5046 6Z" fill="#99A2AD"/>
</svg>
