<svg width="28" height="29" viewBox="0 0 28 29" fill="none" xmlns="http://www.w3.org/2000/svg">
<path fill-rule="evenodd" clip-rule="evenodd" d="M2.53688 13.9989C2.53688 8.33902 7.82589 4 14.0185 4C20.211 4 25.5 8.33902 25.5 13.9989C25.5 19.6589 20.211 23.9979 14.0185 23.9979C12.6453 23.9979 11.3254 23.788 10.1005 23.4013C8.65562 24.7498 6.55631 25.398 3.98829 25.4989C2.94219 25.54 2.18713 24.4519 2.62516 23.478C3.24656 22.0866 4.04946 20.4915 4.14467 19.1002C3.12784 17.6195 2.53688 15.8721 2.53688 13.9989ZM14.0185 6C8.63339 6 4.53688 9.71891 4.53688 13.9989C4.53688 15.5359 5.05151 16.9778 5.95874 18.1996C6.08676 18.372 6.15588 18.581 6.15588 18.7957C6.15588 20.4295 5.50461 21.971 4.84145 23.4339C6.89752 23.2155 8.24636 22.5571 9.05971 21.6C9.33288 21.2786 9.77839 21.1631 10.1733 21.3114C11.3455 21.7516 12.6458 21.9979 14.0185 21.9979C19.4035 21.9979 23.5 18.279 23.5 13.9989C23.5 9.71891 19.4035 6 14.0185 6Z" fill="#005FF9"/>
</svg>
