<svg width="24" height="20" viewBox="0 0 24 20" fill="none" xmlns="http://www.w3.org/2000/svg">
<path d="M16.6577 0.173671C14.9646 0.248127 13.4461 0.917246 12.1302 2.14946L11.9937 2.28185L11.8516 2.1442C10.4403 0.838752 8.82102 0.166687 7.02409 0.166687C3.34067 0.166687 0.333984 3.15367 0.333984 6.83679C0.333984 10.4388 1.6492 12.147 7.54681 16.8069L10.6828 19.2542C11.4576 19.858 12.5437 19.858 13.3185 19.2542L16.0766 17.1046L17.1654 16.2415C22.4594 12.0013 23.6673 10.2887 23.6673 6.83679C23.6673 3.15367 20.6606 0.166687 16.9772 0.166687L16.6577 0.173671ZM16.9772 2.26669C19.5039 2.26669 21.5673 4.31657 21.5673 6.83679L21.5615 7.17932C21.473 9.69537 20.3227 11.0774 15.1344 15.1736L12.0275 17.5978C12.0117 17.6102 11.9896 17.6102 11.9738 17.5978L9.21558 15.4482L8.19614 14.6411C3.36356 10.7807 2.43398 9.46124 2.43398 6.83679C2.43398 4.31657 4.49738 2.26669 7.02409 2.26669C8.57916 2.26669 9.94822 2.9872 11.1884 4.50114C11.6112 5.01735 12.4021 5.01332 12.8197 4.49283C14.0294 2.98494 15.3942 2.26669 16.9772 2.26669Z" fill="#99A2AD"/>
</svg>
