<svg width="113" height="36" viewBox="0 0 113 36" fill="none" xmlns="http://www.w3.org/2000/svg">
<path d="M11 5L90.1675 1.11924C100.552 0.610194 105.744 0.355672 108.297 3.6473C110.85 6.93894 109.311 11.9045 106.234 21.8357L105.49 24.2356C103.808 29.665 102.967 32.3796 100.85 33.9398C98.7333 35.5 95.8913 35.5 90.2072 35.5H13V35.5C27.9445 30.372 26.9783 8.91921 11.6333 5.15535L11 5Z" fill="#FFDC4A"/>
<path d="M5.136 27H2.256V10.68H5.136V27ZM7.61481 13.44V10.68H19.6148V13.44H15.0548V27H12.1748V13.44H7.61481ZM36.2923 24.24V27H26.8363V10.68H36.0523V13.44H29.7163V17.352H35.3323V20.112H29.7163V24.24H36.2923ZM48.5839 14.832L44.2639 27H41.7439L37.4239 14.832H40.2079L42.2959 20.904L43.0879 23.424L43.8559 20.904L45.8479 14.832H48.5839ZM59.8141 26.304C58.9821 26.64 58.1981 26.88 57.4621 27.024C56.7261 27.168 56.0301 27.24 55.3741 27.24C53.5661 27.24 52.1981 26.728 51.2701 25.704C50.3421 24.68 49.8781 23.32 49.8781 21.624V20.184C49.8781 19.048 50.0861 18.064 50.5021 17.232C50.9181 16.4 51.5101 15.752 52.2781 15.288C53.0461 14.824 53.9501 14.592 54.9901 14.592C55.8381 14.592 56.6301 14.768 57.3661 15.12C58.1181 15.456 58.7261 15.992 59.1901 16.728C59.6701 17.448 59.9101 18.376 59.9101 19.512C59.9101 19.848 59.8861 20.208 59.8381 20.592C59.7901 20.96 59.7101 21.352 59.5981 21.768H52.5421C52.5741 22.76 52.8221 23.504 53.2861 24C53.7501 24.496 54.4941 24.744 55.5181 24.744C56.0621 24.744 56.6221 24.68 57.1981 24.552C57.7901 24.424 58.3981 24.232 59.0221 23.976L59.8141 26.304ZM54.9901 16.92C54.2541 16.92 53.6781 17.16 53.2621 17.64C52.8621 18.104 52.6301 18.776 52.5661 19.656H57.1741C57.1901 19.576 57.1981 19.504 57.1981 19.44C57.1981 19.36 57.1981 19.288 57.1981 19.224C57.1981 18.456 56.9821 17.88 56.5501 17.496C56.1181 17.112 55.5981 16.92 54.9901 16.92ZM68.9618 17.16C68.5618 17.16 68.1058 17.256 67.5938 17.448C67.0818 17.64 66.4738 18.016 65.7698 18.576V27H63.0098V14.832H65.6258V16.464C66.3778 15.808 67.0898 15.336 67.7618 15.048C68.4338 14.744 69.1138 14.592 69.8018 14.592C70.9698 14.592 71.8578 14.968 72.4658 15.72C73.0738 16.456 73.3778 17.496 73.3778 18.84V27H70.6178V19.176C70.6178 17.832 70.0658 17.16 68.9618 17.16ZM84.2654 26.592C83.8494 26.784 83.3694 26.936 82.8254 27.048C82.2814 27.176 81.7294 27.24 81.1694 27.24C80.2414 27.24 79.4974 27.048 78.9374 26.664C78.3774 26.28 77.9694 25.744 77.7134 25.056C77.4734 24.368 77.3534 23.584 77.3534 22.704V17.232H75.3854V14.832H77.3534V11.664H80.1134V14.832H83.9054V17.232H80.1134V22.704C80.1134 23.44 80.2494 23.952 80.5214 24.24C80.8094 24.512 81.2174 24.648 81.7454 24.648C82.0014 24.648 82.2734 24.624 82.5614 24.576C82.8654 24.512 83.2014 24.408 83.5694 24.264L84.2654 26.592ZM89.8124 24.84C90.4044 24.84 90.8924 24.744 91.2764 24.552C91.6604 24.344 91.8524 24.04 91.8524 23.64C91.8524 23.288 91.7244 23.016 91.4684 22.824C91.2284 22.616 90.7884 22.432 90.1484 22.272L88.7804 21.912C87.7244 21.64 86.9404 21.184 86.4284 20.544C85.9324 19.904 85.6844 19.144 85.6844 18.264C85.6844 17.224 86.0444 16.352 86.7644 15.648C87.4844 14.944 88.5964 14.592 90.1004 14.592C90.7084 14.592 91.3484 14.664 92.0204 14.808C92.6924 14.952 93.3964 15.184 94.1324 15.504L93.3404 17.856C92.6684 17.536 92.0604 17.312 91.5164 17.184C90.9724 17.056 90.4924 16.992 90.0764 16.992C88.9404 16.992 88.3724 17.376 88.3724 18.144C88.3724 18.448 88.4684 18.688 88.6604 18.864C88.8684 19.04 89.2444 19.2 89.7884 19.344L91.1564 19.704C92.3244 20.008 93.1724 20.472 93.7004 21.096C94.2444 21.72 94.5164 22.504 94.5164 23.448C94.5164 24.568 94.1324 25.48 93.3644 26.184C92.6124 26.888 91.4204 27.24 89.7884 27.24C88.3964 27.24 86.9324 26.92 85.3964 26.28L86.1404 24C86.8924 24.304 87.5724 24.52 88.1804 24.648C88.7884 24.776 89.3324 24.84 89.8124 24.84Z" fill="black"/>
</svg>
