<svg width="112" height="36" viewBox="0 0 112 36" fill="none" xmlns="http://www.w3.org/2000/svg">
<path d="M10 5L89.1675 1.11924C99.552 0.610194 104.744 0.355672 107.297 3.6473C109.85 6.93894 108.311 11.9045 105.234 21.8357L104.49 24.2356C102.808 29.665 101.967 32.3796 99.8501 33.9398C97.7333 35.5 94.8913 35.5 89.2072 35.5H12V35.5C26.9445 30.372 25.9783 8.91921 10.6333 5.15535L10 5Z" fill="#FFDC4A"/>
<path d="M1.944 11.272H5.016V28H1.944V11.272ZM12.5457 28.36C11.6577 28.36 10.9617 28.208 10.4577 27.904C9.95366 27.6 9.59766 27.144 9.38966 26.536C9.18966 25.92 9.08966 25.112 9.08966 24.112V18.568H7.52966V16.048H9.20966L9.37766 13.528L11.9937 12.4V16.048H14.9457V18.568H11.9937V24.04C11.9937 24.712 12.0857 25.188 12.2697 25.468C12.4537 25.748 12.7297 25.888 13.0977 25.888C13.4257 25.888 13.7817 25.804 14.1657 25.636C14.5577 25.46 14.8817 25.264 15.1377 25.048L15.7137 27.472C15.3617 27.72 14.8537 27.928 14.1897 28.096C13.5337 28.272 12.9857 28.36 12.5457 28.36ZM36.0806 25.288V28H26.8646V11.272H35.6006V13.888H29.8646V17.8H34.4246V20.344H29.8646V25.288H36.0806ZM36.7899 16.048H40.1499L42.2139 22.024L42.7419 23.992L43.2219 22.024L45.2139 16.048H48.3819L43.7739 28H41.6379L36.7899 16.048ZM54.7275 28.312C53.4395 28.312 52.3755 28.04 51.5355 27.496C50.6955 26.944 50.0795 26.208 49.6875 25.288C49.3035 24.368 49.1115 23.328 49.1115 22.168C49.1115 20.984 49.3275 19.908 49.7595 18.94C50.1995 17.964 50.8395 17.192 51.6795 16.624C52.5195 16.048 53.5195 15.76 54.6795 15.76C56.4075 15.76 57.6435 16.26 58.3875 17.26C59.1315 18.252 59.5035 19.736 59.5035 21.712C59.5035 22.096 59.4875 22.528 59.4555 23.008H52.2555C52.3035 23.976 52.5715 24.724 53.0595 25.252C53.5555 25.772 54.2795 26.032 55.2315 26.032C55.7275 26.032 56.2595 25.924 56.8275 25.708C57.3955 25.484 57.8155 25.216 58.0875 24.904L59.0475 27.184C57.9195 27.936 56.4795 28.312 54.7275 28.312ZM56.4555 21.136C56.4555 19.96 56.3075 19.152 56.0115 18.712C55.7235 18.264 55.3035 18.04 54.7515 18.04C53.9755 18.04 53.3715 18.328 52.9395 18.904C52.5155 19.48 52.2795 20.224 52.2315 21.136H56.4555ZM68.5576 15.76C69.7496 15.76 70.6456 16.14 71.2456 16.9C71.8536 17.652 72.1576 18.72 72.1576 20.104V28H69.0856V20.368C69.0856 19.688 68.9416 19.148 68.6536 18.748C68.3656 18.34 67.9416 18.136 67.3816 18.136C67.0056 18.136 66.6536 18.232 66.3256 18.424C66.0056 18.616 65.7496 18.884 65.5576 19.228C65.3656 19.564 65.2696 19.944 65.2696 20.368V28H62.1976V16.048H64.9816L65.0416 17.62C65.8656 16.38 67.0376 15.76 68.5576 15.76ZM79.4125 28.36C78.5245 28.36 77.8285 28.208 77.3245 27.904C76.8205 27.6 76.4645 27.144 76.2565 26.536C76.0565 25.92 75.9565 25.112 75.9565 24.112V18.568H74.3965V16.048H76.0765L76.2445 13.528L78.8605 12.4V16.048H81.8125V18.568H78.8605V24.04C78.8605 24.712 78.9525 25.188 79.1365 25.468C79.3205 25.748 79.5965 25.888 79.9645 25.888C80.2925 25.888 80.6485 25.804 81.0325 25.636C81.4245 25.46 81.7485 25.264 82.0045 25.048L82.5805 27.472C82.2285 27.72 81.7205 27.928 81.0565 28.096C80.4005 28.272 79.8525 28.36 79.4125 28.36ZM87.9414 28.216C86.7974 28.216 85.8974 28.076 85.2414 27.796C84.5934 27.508 84.1334 27.2 83.8614 26.872L84.7494 24.592C85.7734 25.44 86.8614 25.864 88.0134 25.864C88.5334 25.864 88.9174 25.76 89.1654 25.552C89.4214 25.336 89.5494 25.072 89.5494 24.76C89.5494 24.424 89.3294 24.116 88.8894 23.836C88.4574 23.548 87.8134 23.216 86.9574 22.84C86.4054 22.6 85.9254 22.348 85.5174 22.084C85.1094 21.82 84.7534 21.464 84.4494 21.016C84.1534 20.56 84.0054 20.008 84.0054 19.36C84.0054 18.64 84.1814 18.012 84.5334 17.476C84.8934 16.94 85.4134 16.528 86.0934 16.24C86.7734 15.952 87.5894 15.808 88.5414 15.808C89.1094 15.808 89.6414 15.872 90.1374 16C90.6414 16.12 91.0694 16.272 91.4214 16.456C91.7734 16.632 92.0294 16.8 92.1894 16.96L91.3734 19.12C91.0054 18.84 90.5814 18.604 90.1014 18.412C89.6294 18.212 89.1414 18.112 88.6374 18.112C88.0374 18.112 87.6134 18.192 87.3654 18.352C87.1254 18.504 87.0054 18.76 87.0054 19.12C87.0054 19.48 87.1814 19.78 87.5334 20.02C87.8934 20.26 88.4454 20.528 89.1894 20.824C90.2614 21.248 91.0854 21.752 91.6614 22.336C92.2374 22.912 92.5254 23.616 92.5254 24.448C92.5254 25.144 92.3654 25.776 92.0454 26.344C91.7334 26.904 91.2334 27.356 90.5454 27.7C89.8654 28.044 88.9974 28.216 87.9414 28.216Z" fill="white"/>
</svg>
