<svg width="17" height="14" viewBox="0 0 17 14" fill="none" xmlns="http://www.w3.org/2000/svg">
<path d="M13.0323 4.20898C12.9786 4.20898 12.9329 4.19969 12.8952 4.1811C12.8576 4.16252 12.828 4.13 12.8065 4.08354L12.3388 3.13582L11.1614 2.68984C11.1076 2.67126 11.07 2.6457 11.0485 2.61319C11.0269 2.58067 11.0162 2.54118 11.0162 2.49472C11.0162 2.44826 11.0269 2.40878 11.0485 2.37626C11.07 2.34374 11.1076 2.31818 11.1614 2.2996L12.3388 1.86755L12.8065 0.961646C12.828 0.915189 12.8576 0.882669 12.8952 0.864086C12.9329 0.845504 12.9786 0.836212 13.0323 0.836212C13.0861 0.836212 13.1318 0.845504 13.1694 0.864086C13.2071 0.882669 13.2366 0.915189 13.2581 0.961646L13.7259 1.86755L14.9033 2.2996C14.9571 2.31818 14.9947 2.34374 15.0162 2.37626C15.0377 2.40878 15.0485 2.44826 15.0485 2.49472C15.0485 2.54118 15.0377 2.58067 15.0162 2.61319C14.9947 2.6457 14.9571 2.67126 14.9033 2.68984L13.7259 3.13582L13.2581 4.08354C13.2366 4.13 13.2071 4.16252 13.1694 4.1811C13.1318 4.19969 13.0861 4.20898 13.0323 4.20898ZM13.0323 12.5155C12.9893 12.5155 12.9463 12.5062 12.9033 12.4876C12.8603 12.469 12.828 12.4365 12.8065 12.39L12.3388 11.4841L11.1775 11.0521C11.1237 11.0335 11.0861 11.0079 11.0646 10.9754C11.0431 10.9429 11.0323 10.9034 11.0323 10.8569C11.0323 10.8105 11.0431 10.771 11.0646 10.7385C11.0861 10.706 11.1237 10.6804 11.1775 10.6618L12.3388 10.2298L12.8065 9.26812C12.828 9.22167 12.8576 9.18915 12.8952 9.17056C12.9329 9.15198 12.9786 9.14269 13.0323 9.14269C13.0861 9.14269 13.1318 9.15198 13.1694 9.17056C13.2071 9.18915 13.2366 9.22167 13.2581 9.26812L13.7259 10.2298L14.8872 10.6618C14.9409 10.6804 14.9786 10.706 15.0001 10.7385C15.0216 10.771 15.0323 10.8105 15.0323 10.8569C15.0323 10.9034 15.0216 10.9429 15.0001 10.9754C14.9786 11.0079 14.9409 11.0335 14.8872 11.0521L13.7259 11.4841L13.2581 12.39C13.2366 12.4365 13.2044 12.469 13.1614 12.4876C13.1183 12.5062 13.0753 12.5155 13.0323 12.5155ZM5.95168 10.1043C5.86565 10.1043 5.78232 10.0834 5.70168 10.0416C5.62103 9.99982 5.5592 9.94175 5.51619 9.86742L4.46781 7.93017L2.20974 7.05213C2.12372 7.01497 2.05651 6.96154 2.00813 6.89186C1.95974 6.82217 1.93555 6.75016 1.93555 6.67583C1.93555 6.6015 1.95974 6.52949 2.00813 6.45981C2.05651 6.39012 2.12372 6.3367 2.20974 6.29953L4.46781 5.4215L5.51619 3.49819C5.5592 3.41457 5.62103 3.35185 5.70168 3.31004C5.78232 3.26823 5.86565 3.24732 5.95168 3.24732C6.0377 3.24732 6.12103 3.26823 6.20168 3.31004C6.28232 3.35185 6.34415 3.40992 6.38716 3.48425L7.45168 5.4215L9.69361 6.29953C9.79039 6.3367 9.86297 6.39012 9.91135 6.45981C9.95974 6.52949 9.98393 6.6015 9.98393 6.67583C9.98393 6.75016 9.95974 6.82217 9.91135 6.89186C9.86297 6.96154 9.79039 7.01497 9.69361 7.05213L7.45168 7.93017L6.38716 9.86742C6.34415 9.95104 6.28232 10.0114 6.20168 10.0486C6.12103 10.0858 6.0377 10.1043 5.95168 10.1043Z" fill="#4318FF"/>
</svg>
