<svg width="200" height="200" viewBox="0 0 200 200" fill="none" xmlns="http://www.w3.org/2000/svg">
<g clip-path="url(#clip0_274_80620)">
<rect width="200" height="200" rx="100" fill="url(#paint0_linear_274_80620)"/>
<path d="M148.333 106.333C153.741 88.3727 157.075 57.6667 134.333 36.6667C116.953 20.6173 69.9999 19 53.6666 54C50.9399 59.8427 54.6666 69 61.9999 68.6667C64.8819 68.5333 66.6666 77.6667 68.3333 83.3333C65.9999 106.333 45.2119 106.758 34.6666 124.333C21.6666 146 37.6666 178 75.9999 178C114.333 178 136.308 146.27 148.333 106.333Z" fill="url(#paint1_linear_274_80620)"/>
<path d="M161.333 158.95C166.222 168.366 168.666 202.667 168.666 202.667H31.333C31.333 202.667 33.7777 168.366 38.6663 158.95C45.9997 144.826 99.9997 126.667 99.9997 126.667C99.9997 126.667 154 144.826 161.333 158.95Z" fill="url(#paint2_linear_274_80620)"/>
<path d="M116 134.667C116 134.667 107.489 139.333 99.6595 139.333C91.8302 139.333 83.9995 134.667 83.9995 134.667V120C82.3152 120.266 80.6089 120.368 78.9049 120.303C62.9129 120.301 56.8829 97.0073 59.9995 68.6667C61.9995 68.6667 66.6662 68.6667 73.3329 59.3333C71.6662 72.3333 90.9995 70.3333 98.3329 60C94.6662 72.3333 104.333 80.6667 112.666 75.6667C129.007 65.862 132.68 95.7507 116 96V134.667Z" fill="url(#paint3_linear_274_80620)"/>
<g style="mix-blend-mode:multiply" opacity="0.782">
<path d="M84 120C92.2699 118.477 100.183 115.425 107.333 111C107.333 111 99 125.333 84 125.333V120Z" fill="#FFD7B8"/>
</g>
<path d="M100.022 138.65C104.84 138.432 116 136.072 116 130.973V126.667C117.223 126.667 120.724 129.555 122.524 132C129.642 141.667 121.747 150.333 115.308 150.333C107.184 150.333 101.8 143.545 100 140.28C98.2002 143.547 92.8162 150.333 84.6922 150.333C78.2536 150.333 70.3589 141.667 77.4762 132C79.2769 129.555 82.7776 126.667 84.0002 126.667V130.973C84.0002 136.072 95.4616 138.432 100.022 138.65Z" fill="white"/>
<path d="M97.333 184C97.333 183.473 97.4894 182.957 97.7824 182.518C98.0754 182.08 98.4919 181.738 98.9792 181.536C99.4665 181.335 100.003 181.282 100.52 181.385C101.037 181.487 101.512 181.741 101.885 182.114C102.258 182.487 102.512 182.962 102.615 183.48C102.718 183.997 102.665 184.533 102.463 185.021C102.262 185.508 101.92 185.924 101.481 186.217C101.043 186.51 100.527 186.667 99.9997 186.667C99.2924 186.667 98.6142 186.386 98.1141 185.886C97.614 185.386 97.333 184.707 97.333 184ZM97.333 170.667C97.333 170.139 97.4894 169.624 97.7824 169.185C98.0754 168.747 98.4919 168.405 98.9792 168.203C99.4665 168.001 100.003 167.948 100.52 168.051C101.037 168.154 101.512 168.408 101.885 168.781C102.258 169.154 102.512 169.629 102.615 170.146C102.718 170.664 102.665 171.2 102.463 171.687C102.262 172.174 101.92 172.591 101.481 172.884C101.043 173.177 100.527 173.333 99.9997 173.333C99.2924 173.333 98.6142 173.052 98.1141 172.552C97.614 172.052 97.333 171.374 97.333 170.667ZM97.333 157.333C97.333 156.806 97.4894 156.29 97.7824 155.852C98.0754 155.413 98.4919 155.072 98.9792 154.87C99.4665 154.668 100.003 154.615 100.52 154.718C101.037 154.821 101.512 155.075 101.885 155.448C102.258 155.821 102.512 156.296 102.615 156.813C102.718 157.33 102.665 157.867 102.463 158.354C102.262 158.841 101.92 159.258 101.481 159.551C101.043 159.844 100.527 160 99.9997 160C99.2924 160 98.6142 159.719 98.1141 159.219C97.614 158.719 97.333 158.041 97.333 157.333Z" fill="url(#paint4_linear_274_80620)"/>
</g>
<defs>
<linearGradient id="paint0_linear_274_80620" x1="100" y1="200" x2="100" y2="0" gradientUnits="userSpaceOnUse">
<stop stop-color="#FFDC4A"/>
<stop offset="1" stop-color="#F2865F"/>
</linearGradient>
<linearGradient id="paint1_linear_274_80620" x1="91.2547" y1="25.7256" x2="91.2547" y2="178" gradientUnits="userSpaceOnUse">
<stop stop-color="#130027"/>
<stop offset="1" stop-color="#130017"/>
</linearGradient>
<linearGradient id="paint2_linear_274_80620" x1="99.9997" y1="202.667" x2="99.9997" y2="126.667" gradientUnits="userSpaceOnUse">
<stop stop-color="#005FF9"/>
<stop offset="1" stop-color="#9CC2E5"/>
</linearGradient>
<linearGradient id="paint3_linear_274_80620" x1="93.0306" y1="59.3333" x2="93.0306" y2="139.333" gradientUnits="userSpaceOnUse">
<stop stop-color="#FFE0CC"/>
<stop offset="1" stop-color="#FFEADB"/>
</linearGradient>
<linearGradient id="paint4_linear_274_80620" x1="99.9997" y1="154.667" x2="99.9997" y2="186.667" gradientUnits="userSpaceOnUse">
<stop stop-color="#130027"/>
<stop offset="1" stop-color="#130017"/>
</linearGradient>
<clipPath id="clip0_274_80620">
<rect width="200" height="200" rx="100" fill="white"/>
</clipPath>
</defs>
</svg>
